<svg width="456" height="424" viewBox="0 0 456 424" fill="none" xmlns="http://www.w3.org/2000/svg">
<rect x="200" y="168" width="4" height="4" fill="black"/>
<rect x="228" y="168" width="4" height="4" fill="black"/>
<rect x="256" y="168" width="4" height="4" fill="black"/>
<rect x="284" y="168" width="4" height="4" fill="black"/>
<rect x="312" y="168" width="4" height="4" fill="black"/>
<rect x="340" y="168" width="4" height="4" fill="black"/>
<rect x="368" y="168" width="4" height="4" fill="black"/>
<rect x="396" y="168" width="4" height="4" fill="black"/>
<rect x="424" y="168" width="4" height="4" fill="black"/>
<rect x="452" y="168" width="4" height="4" fill="black"/>
<rect x="200" y="196" width="4" height="4" fill="black"/>
<rect x="228" y="196" width="4" height="4" fill="black"/>
<rect x="256" y="196" width="4" height="4" fill="black"/>
<rect x="284" y="196" width="4" height="4" fill="black"/>
<rect x="312" y="196" width="4" height="4" fill="black"/>
<rect x="340" y="196" width="4" height="4" fill="black"/>
<rect x="368" y="196" width="4" height="4" fill="black"/>
<rect x="396" y="196" width="4" height="4" fill="black"/>
<rect x="424" y="196" width="4" height="4" fill="black"/>
<rect x="452" y="196" width="4" height="4" fill="black"/>
<rect x="200" y="224" width="4" height="4" fill="black"/>
<rect x="228" y="224" width="4" height="4" fill="black"/>
<rect x="256" y="224" width="4" height="4" fill="black"/>
<rect x="284" y="224" width="4" height="4" fill="black"/>
<rect x="312" y="224" width="4" height="4" fill="black"/>
<rect x="340" y="224" width="4" height="4" fill="black"/>
<rect x="368" y="224" width="4" height="4" fill="black"/>
<rect x="396" y="224" width="4" height="4" fill="black"/>
<rect x="424" y="224" width="4" height="4" fill="black"/>
<rect x="452" y="224" width="4" height="4" fill="black"/>
<rect x="200" y="252" width="4" height="4" fill="black"/>
<rect x="228" y="252" width="4" height="4" fill="black"/>
<rect x="256" y="252" width="4" height="4" fill="black"/>
<rect x="284" y="252" width="4" height="4" fill="black"/>
<rect x="312" y="252" width="4" height="4" fill="black"/>
<rect x="340" y="252" width="4" height="4" fill="black"/>
<rect x="368" y="252" width="4" height="4" fill="black"/>
<rect x="396" y="252" width="4" height="4" fill="black"/>
<rect x="424" y="252" width="4" height="4" fill="black"/>
<rect x="452" y="252" width="4" height="4" fill="black"/>
<rect x="200" y="280" width="4" height="4" fill="black"/>
<rect x="228" y="280" width="4" height="4" fill="black"/>
<rect x="256" y="280" width="4" height="4" fill="black"/>
<rect x="284" y="280" width="4" height="4" fill="black"/>
<rect x="312" y="280" width="4" height="4" fill="black"/>
<rect x="340" y="280" width="4" height="4" fill="black"/>
<rect x="368" y="280" width="4" height="4" fill="black"/>
<rect x="396" y="280" width="4" height="4" fill="black"/>
<rect x="424" y="280" width="4" height="4" fill="black"/>
<rect x="452" y="280" width="4" height="4" fill="black"/>
<rect x="200" y="308" width="4" height="4" fill="black"/>
<rect x="228" y="308" width="4" height="4" fill="black"/>
<rect x="256" y="308" width="4" height="4" fill="black"/>
<rect x="284" y="308" width="4" height="4" fill="black"/>
<rect x="312" y="308" width="4" height="4" fill="black"/>
<rect x="340" y="308" width="4" height="4" fill="black"/>
<rect x="368" y="308" width="4" height="4" fill="black"/>
<rect x="396" y="308" width="4" height="4" fill="black"/>
<rect x="424" y="308" width="4" height="4" fill="black"/>
<rect x="452" y="308" width="4" height="4" fill="black"/>
<rect x="200" y="336" width="4" height="4" fill="black"/>
<rect x="228" y="336" width="4" height="4" fill="black"/>
<rect x="256" y="336" width="4" height="4" fill="black"/>
<rect x="284" y="336" width="4" height="4" fill="black"/>
<rect x="312" y="336" width="4" height="4" fill="black"/>
<rect x="340" y="336" width="4" height="4" fill="black"/>
<rect x="368" y="336" width="4" height="4" fill="black"/>
<rect x="396" y="336" width="4" height="4" fill="black"/>
<rect x="424" y="336" width="4" height="4" fill="black"/>
<rect x="452" y="336" width="4" height="4" fill="black"/>
<rect x="200" y="364" width="4" height="4" fill="black"/>
<rect x="228" y="364" width="4" height="4" fill="black"/>
<rect x="256" y="364" width="4" height="4" fill="black"/>
<rect x="284" y="364" width="4" height="4" fill="black"/>
<rect x="312" y="364" width="4" height="4" fill="black"/>
<rect x="340" y="364" width="4" height="4" fill="black"/>
<rect x="368" y="364" width="4" height="4" fill="black"/>
<rect x="396" y="364" width="4" height="4" fill="black"/>
<rect x="424" y="364" width="4" height="4" fill="black"/>
<rect x="452" y="364" width="4" height="4" fill="black"/>
<rect x="200" y="392" width="4" height="4" fill="black"/>
<rect x="228" y="392" width="4" height="4" fill="black"/>
<rect x="256" y="392" width="4" height="4" fill="black"/>
<rect x="284" y="392" width="4" height="4" fill="black"/>
<rect x="312" y="392" width="4" height="4" fill="black"/>
<rect x="340" y="392" width="4" height="4" fill="black"/>
<rect x="368" y="392" width="4" height="4" fill="black"/>
<rect x="396" y="392" width="4" height="4" fill="black"/>
<rect x="424" y="392" width="4" height="4" fill="black"/>
<rect x="452" y="392" width="4" height="4" fill="black"/>
<rect x="200" y="420" width="4" height="4" fill="black"/>
<rect x="228" y="420" width="4" height="4" fill="black"/>
<rect x="256" y="420" width="4" height="4" fill="black"/>
<rect x="284" y="420" width="4" height="4" fill="black"/>
<rect x="312" y="420" width="4" height="4" fill="black"/>
<rect x="340" y="420" width="4" height="4" fill="black"/>
<rect x="368" y="420" width="4" height="4" fill="black"/>
<rect x="396" y="420" width="4" height="4" fill="black"/>
<rect x="424" y="420" width="4" height="4" fill="black"/>
<rect x="452" y="420" width="4" height="4" fill="black"/>
<rect width="4" height="4" fill="black"/>
<rect x="28" width="4" height="4" fill="black"/>
<rect x="56" width="4" height="4" fill="black"/>
<rect x="84" width="4" height="4" fill="black"/>
<rect x="112" width="4" height="4" fill="black"/>
<rect x="140" width="4" height="4" fill="black"/>
<rect x="168" width="4" height="4" fill="black"/>
<rect x="196" width="4" height="4" fill="black"/>
<rect x="224" width="4" height="4" fill="black"/>
<rect x="252" width="4" height="4" fill="black"/>
<rect y="28" width="4" height="4" fill="black"/>
<rect x="28" y="28" width="4" height="4" fill="black"/>
<rect x="56" y="28" width="4" height="4" fill="black"/>
<rect x="84" y="28" width="4" height="4" fill="black"/>
<rect x="112" y="28" width="4" height="4" fill="black"/>
<rect x="140" y="28" width="4" height="4" fill="black"/>
<rect x="168" y="28" width="4" height="4" fill="black"/>
<rect x="196" y="28" width="4" height="4" fill="black"/>
<rect x="224" y="28" width="4" height="4" fill="black"/>
<rect x="252" y="28" width="4" height="4" fill="black"/>
<rect y="56" width="4" height="4" fill="black"/>
<rect x="28" y="56" width="4" height="4" fill="black"/>
<rect x="56" y="56" width="4" height="4" fill="black"/>
<rect x="84" y="56" width="4" height="4" fill="black"/>
<rect x="112" y="56" width="4" height="4" fill="black"/>
<rect x="140" y="56" width="4" height="4" fill="black"/>
<rect x="168" y="56" width="4" height="4" fill="black"/>
<rect x="196" y="56" width="4" height="4" fill="black"/>
<rect x="224" y="56" width="4" height="4" fill="black"/>
<rect x="252" y="56" width="4" height="4" fill="black"/>
<rect y="84" width="4" height="4" fill="black"/>
<rect x="28" y="84" width="4" height="4" fill="black"/>
<rect x="56" y="84" width="4" height="4" fill="black"/>
<rect x="84" y="84" width="4" height="4" fill="black"/>
<rect x="112" y="84" width="4" height="4" fill="black"/>
<rect x="140" y="84" width="4" height="4" fill="black"/>
<rect x="168" y="84" width="4" height="4" fill="black"/>
<rect x="196" y="84" width="4" height="4" fill="black"/>
<rect x="224" y="84" width="4" height="4" fill="black"/>
<rect x="252" y="84" width="4" height="4" fill="black"/>
<rect y="112" width="4" height="4" fill="black"/>
<rect x="28" y="112" width="4" height="4" fill="black"/>
<rect x="56" y="112" width="4" height="4" fill="black"/>
<rect x="84" y="112" width="4" height="4" fill="black"/>
<rect x="112" y="112" width="4" height="4" fill="black"/>
<rect x="140" y="112" width="4" height="4" fill="black"/>
<rect x="168" y="112" width="4" height="4" fill="black"/>
<rect x="196" y="112" width="4" height="4" fill="black"/>
<rect x="224" y="112" width="4" height="4" fill="black"/>
<rect x="252" y="112" width="4" height="4" fill="black"/>
<rect y="140" width="4" height="4" fill="black"/>
<rect x="28" y="140" width="4" height="4" fill="black"/>
<rect x="56" y="140" width="4" height="4" fill="black"/>
<rect x="84" y="140" width="4" height="4" fill="black"/>
<rect x="112" y="140" width="4" height="4" fill="black"/>
<rect x="140" y="140" width="4" height="4" fill="black"/>
<rect x="168" y="140" width="4" height="4" fill="black"/>
<rect x="196" y="140" width="4" height="4" fill="black"/>
<rect x="224" y="140" width="4" height="4" fill="black"/>
<rect x="252" y="140" width="4" height="4" fill="black"/>
<rect y="168" width="4" height="4" fill="black"/>
<rect x="28" y="168" width="4" height="4" fill="black"/>
<rect x="56" y="168" width="4" height="4" fill="black"/>
<rect x="84" y="168" width="4" height="4" fill="black"/>
<rect x="112" y="168" width="4" height="4" fill="black"/>
<rect x="140" y="168" width="4" height="4" fill="black"/>
<rect x="168" y="168" width="4" height="4" fill="black"/>
<rect x="196" y="168" width="4" height="4" fill="black"/>
<rect x="224" y="168" width="4" height="4" fill="black"/>
<rect x="252" y="168" width="4" height="4" fill="black"/>
<rect y="196" width="4" height="4" fill="black"/>
<rect x="28" y="196" width="4" height="4" fill="black"/>
<rect x="56" y="196" width="4" height="4" fill="black"/>
<rect x="84" y="196" width="4" height="4" fill="black"/>
<rect x="112" y="196" width="4" height="4" fill="black"/>
<rect x="140" y="196" width="4" height="4" fill="black"/>
<rect x="168" y="196" width="4" height="4" fill="black"/>
<rect x="196" y="196" width="4" height="4" fill="black"/>
<rect x="224" y="196" width="4" height="4" fill="black"/>
<rect x="252" y="196" width="4" height="4" fill="black"/>
<rect y="224" width="4" height="4" fill="black"/>
<rect x="28" y="224" width="4" height="4" fill="black"/>
<rect x="56" y="224" width="4" height="4" fill="black"/>
<rect x="84" y="224" width="4" height="4" fill="black"/>
<rect x="112" y="224" width="4" height="4" fill="black"/>
<rect x="140" y="224" width="4" height="4" fill="black"/>
<rect x="168" y="224" width="4" height="4" fill="black"/>
<rect x="196" y="224" width="4" height="4" fill="black"/>
<rect x="224" y="224" width="4" height="4" fill="black"/>
<rect x="252" y="224" width="4" height="4" fill="black"/>
<rect y="252" width="4" height="4" fill="black"/>
<rect x="28" y="252" width="4" height="4" fill="black"/>
<rect x="56" y="252" width="4" height="4" fill="black"/>
<rect x="84" y="252" width="4" height="4" fill="black"/>
<rect x="112" y="252" width="4" height="4" fill="black"/>
<rect x="140" y="252" width="4" height="4" fill="black"/>
<rect x="168" y="252" width="4" height="4" fill="black"/>
<rect x="196" y="252" width="4" height="4" fill="black"/>
<rect x="224" y="252" width="4" height="4" fill="black"/>
<rect x="252" y="252" width="4" height="4" fill="black"/>
</svg>
